<svg width="264" height="264" viewBox="0 0 264 264" fill="none" xmlns="http://www.w3.org/2000/svg">
<circle cx="131.534" cy="132.466" r="120.881" transform="rotate(135 131.534 132.466)" fill="#1E293B" stroke="#1E293B" stroke-width="12"/>
<path d="M212.698 51.233C191.154 29.6887 161.934 17.5853 131.466 17.5853C100.997 17.5853 71.7771 29.6887 50.2328 51.233C28.6885 72.7773 16.5851 101.998 16.5851 132.466C16.5851 162.934 28.6885 192.154 50.2328 213.699L131.466 132.466L212.698 51.233Z" fill="#EF4444"/>
<path d="M50.3016 213.699C71.8458 235.243 101.066 247.346 131.534 247.346C162.003 247.346 191.223 235.243 212.767 213.699C234.311 192.154 246.415 162.934 246.415 132.466C246.415 101.998 234.311 72.7773 212.767 51.233L131.534 132.466L50.3016 213.699Z" fill="#F1F5F9"/>
</svg>
